<svg width="24" height="24" viewBox="0 0 24 24" fill="none" xmlns="http://www.w3.org/2000/svg">
<path d="M19.4633 3.2636C19.8148 2.91213 20.3845 2.91213 20.736 3.2636C21.0874 3.61506 21.0874 4.18477 20.736 4.53623L13.2724 11.9998L20.736 19.4633L20.852 19.6039C21.0827 19.9533 21.0435 20.4284 20.736 20.736C20.4284 21.0435 19.9533 21.0827 19.6039 20.852L19.4633 20.736L11.9998 13.2724L4.53623 20.736C4.18477 21.0874 3.61507 21.0874 3.2636 20.736C2.91213 20.3845 2.91213 19.8148 3.2636 19.4633L10.7271 11.9998L3.2636 4.53623C2.91213 4.18477 2.91213 3.61506 3.2636 3.2636C3.61506 2.91213 4.18477 2.91213 4.53623 3.2636L11.9998 10.7271L19.4633 3.2636Z" fill="#F5F5F5"/>
</svg>
