<svg width="24" height="24" viewBox="0 0 24 24" fill="none" xmlns="http://www.w3.org/2000/svg">
<path d="M15 9.8C15 9.28453 14.5155 9 14 9H5.8C5.28453 9 5 9.28453 5 9.8V18.2C5 18.7155 5.28453 19 5.8 19H14.2C14.7155 19 15 18.7155 15 18.2V9.8ZM17 18.2C17 19.7464 15.7464 21 14.2 21H5.8C4.2536 21 3 19.7464 3 18.2V9.8C3 8.2536 4.2536 7 5.8 7H14.2C15.7464 7 17 8.2536 17 9.8V18.2Z" fill="#F5F5F5"/>
<path d="M15 3C19 3 21 6 21 9V12C21 13.6341 20.2122 15.0798 19 15.9922V9C19 7 17 5 15 5H8.00781C8.9202 3.78779 10.3659 3 12 3H15Z" fill="#F5F5F5"/>
</svg>
