<svg width="24" height="24" viewBox="0 0 24 24" fill="none" xmlns="http://www.w3.org/2000/svg">
<path d="M6 17.4445C6 18.3036 5.32843 19 4.5 19C3.67157 19 3 18.3036 3 17.4445C3 16.5854 3.67157 15.889 4.5 15.889C5.32843 15.889 6 16.5854 6 17.4445Z" fill="#F5F5F5"/>
<path d="M3 12.0003C4.64092 12.0003 6.32727 12.5103 7.61572 13.6682C8.92173 14.8419 9.75 16.6206 9.75 19H8.25C8.25 17.0243 7.57802 15.6923 6.63428 14.8439C5.67275 13.9798 4.359 13.5558 3 13.5558V12.0003Z" fill="#F5F5F5"/>
<path d="M3 8.8893C5.39079 8.8893 7.82731 9.63223 9.67822 11.2955C11.5467 12.9747 12.75 15.5318 12.75 19H11.25C11.25 15.9353 10.2032 13.8251 8.69678 12.4712C7.17275 11.1015 5.109 10.4448 3 10.4448V8.8893Z" fill="#F5F5F5"/>
<path d="M21 5V19H14.25V17.4445H19.5V6.55549H4.5V7.33381H3V5H21Z" fill="#F5F5F5"/>
</svg>
