<svg width="24" height="24" viewBox="0 0 24 24" fill="none" xmlns="http://www.w3.org/2000/svg">
<path d="M3 9.3V6.6C3 6.00598 3.17134 5.13527 3.71016 4.38691C4.28202 3.5927 5.22671 3 6.6 3H9.3C9.79706 3 10.2 3.40294 10.2 3.9C10.2 4.39706 9.79706 4.8 9.3 4.8H6.6C5.81367 4.8 5.40908 5.1075 5.1709 5.43809C4.89971 5.81473 4.8 6.29402 4.8 6.6V9.3C4.8 9.79706 4.39706 10.2 3.9 10.2C3.40294 10.2 3 9.79706 3 9.3Z" fill="#F5F5F5"/>
<path d="M3 14.7V17.4C3 17.994 3.17134 18.8647 3.71016 19.6131C4.28202 20.4073 5.22671 21 6.6 21H9.3C9.79706 21 10.2 20.5971 10.2 20.1C10.2 19.6029 9.79706 19.2 9.3 19.2H6.6C5.81367 19.2 5.40908 18.8925 5.1709 18.5619C4.89971 18.1853 4.8 17.706 4.8 17.4V14.7C4.8 14.2029 4.39706 13.8 3.9 13.8C3.40294 13.8 3 14.2029 3 14.7Z" fill="#F5F5F5"/>
<path d="M21 9.3V6.6C21 6.00598 20.8287 5.13527 20.2898 4.38691C19.718 3.5927 18.7733 3 17.4 3H14.7C14.2029 3 13.8 3.40294 13.8 3.9C13.8 4.39706 14.2029 4.8 14.7 4.8H17.4C18.1863 4.8 18.5909 5.1075 18.8291 5.43809C19.1003 5.81473 19.2 6.29402 19.2 6.6V9.3C19.2 9.79706 19.6029 10.2 20.1 10.2C20.5971 10.2 21 9.79706 21 9.3Z" fill="#F5F5F5"/>
<path d="M21 14.7V17.4C21 17.994 20.8287 18.8647 20.2898 19.6131C19.718 20.4073 18.7733 21 17.4 21H14.7C14.2029 21 13.8 20.5971 13.8 20.1C13.8 19.6029 14.2029 19.2 14.7 19.2H17.4C18.1863 19.2 18.5909 18.8925 18.8291 18.5619C19.1003 18.1853 19.2 17.706 19.2 17.4V14.7C19.2 14.2029 19.6029 13.8 20.1 13.8C20.5971 13.8 21 14.2029 21 14.7Z" fill="#F5F5F5"/>
<path d="M16.5 7.5V16.5H7.5V7.5H16.5Z" fill="#F5F5F5"/>
</svg>
