<svg width="24" height="24" viewBox="0 0 24 24" fill="none" xmlns="http://www.w3.org/2000/svg">
<path d="M14.7 18.9967C15.1971 18.9967 15.6 19.3973 15.6 19.8915C15.6 20.3856 15.1971 20.7862 14.7 20.7862H9.3C8.80294 20.7862 8.4 20.3856 8.4 19.8915C8.4 19.3973 8.80294 18.9967 9.3 18.9967H14.7ZM19.2 7.36516C19.2 7.06097 19.1003 6.58448 18.8291 6.21004C18.5909 5.88139 18.1863 5.57569 17.4 5.57569H6.6C6.29402 5.57569 5.81473 5.67482 5.43809 5.94442C5.1075 6.18121 4.8 6.58343 4.8 7.36516V12.7336C4.8 13.0378 4.89971 13.5143 5.1709 13.8887C5.40908 14.2174 5.81367 14.5231 6.6 14.5231H17.4C17.706 14.5231 18.1853 14.4239 18.5619 14.1543C18.8925 13.9175 19.2 13.5153 19.2 12.7336V7.36516ZM21 12.7336C21 14.0988 20.4073 15.038 19.6131 15.6065C18.8647 16.1422 17.994 16.3125 17.4 16.3125H6.6C5.22671 16.3125 4.28202 15.7233 3.71016 14.9337C3.17134 14.1897 3 13.3241 3 12.7336V7.36516C3 5.9999 3.5927 5.06073 4.38691 4.49222C5.13527 3.95655 6.00598 3.78621 6.6 3.78621H17.4C18.7733 3.78621 19.718 4.37545 20.2898 5.16502C20.8287 5.909 21 6.77461 21 7.36516V12.7336Z" fill="#F5F5F5"/>
</svg>
